solid OpenSCAD_Model
  facet normal 0 0 -1
    outer loop
      vertex 0 34 -3
      vertex -10 39.5 -3
      vertex 0 39.5 -3
    endloop
  endfacet
  facet normal -0 0 -1
    outer loop
      vertex -10 39.5 -3
      vertex -20 34 -3
      vertex -10 50.5 -3
    endloop
  endfacet
  facet normal 0 0 -1
    outer loop
      vertex -20 34 -3
      vertex -10 39.5 -3
      vertex 0 34 -3
    endloop
  endfacet
  facet normal 0 0 -1
    outer loop
      vertex -10 50.5 -3
      vertex 0 56 -3
      vertex 0 50.5 -3
    endloop
  endfacet
  facet normal 0 0 -1
    outer loop
      vertex -10 50.5 -3
      vertex -20 56 -3
      vertex 0 56 -3
    endloop
  endfacet
  facet normal 0 0 -1
    outer loop
      vertex -20 56 -3
      vertex -10 50.5 -3
      vertex -20 34 -3
    endloop
  endfacet
  facet normal -1 0 0
    outer loop
      vertex -20 56 -3
      vertex -20 47.5 5
      vertex -20 56 13
    endloop
  endfacet
  facet normal -1 0 0
    outer loop
      vertex -20 56 -3
      vertex -20 46.7678 3.23223
      vertex -20 47.5 5
    endloop
  endfacet
  facet normal -1 0 0
    outer loop
      vertex -20 56 -3
      vertex -20 45 2.5
      vertex -20 46.7678 3.23223
    endloop
  endfacet
  facet normal -1 0 0
    outer loop
      vertex -20 34 -3
      vertex -20 45 2.5
      vertex -20 56 -3
    endloop
  endfacet
  facet normal -1 -0 0
    outer loop
      vertex -20 43.2322 3.23223
      vertex -20 34 -3
      vertex -20 42.5 5
    endloop
  endfacet
  facet normal -1 -0 0
    outer loop
      vertex -20 45 2.5
      vertex -20 34 -3
      vertex -20 43.2322 3.23223
    endloop
  endfacet
  facet normal -1 0 0
    outer loop
      vertex -20 46.7678 6.76777
      vertex -20 56 13
      vertex -20 47.5 5
    endloop
  endfacet
  facet normal -1 0 0
    outer loop
      vertex -20 45 7.5
      vertex -20 56 13
      vertex -20 46.7678 6.76777
    endloop
  endfacet
  facet normal -1 0 0
    outer loop
      vertex -20 34 13
      vertex -20 45 7.5
      vertex -20 43.2322 6.76777
    endloop
  endfacet
  facet normal -1 0 0
    outer loop
      vertex -20 34 13
      vertex -20 42.5 5
      vertex -20 34 -3
    endloop
  endfacet
  facet normal -1 0 0
    outer loop
      vertex -20 45 7.5
      vertex -20 34 13
      vertex -20 56 13
    endloop
  endfacet
  facet normal -1 0 0
    outer loop
      vertex -20 42.5 5
      vertex -20 34 13
      vertex -20 43.2322 6.76777
    endloop
  endfacet
  facet normal 0 0 1
    outer loop
      vertex 0 56 13
      vertex -10 50.5 13
      vertex 0 50.5 13
    endloop
  endfacet
  facet normal 0 0 1
    outer loop
      vertex -10 50.5 13
      vertex -20 56 13
      vertex -10 39.5 13
    endloop
  endfacet
  facet normal -0 0 1
    outer loop
      vertex -20 56 13
      vertex -10 50.5 13
      vertex 0 56 13
    endloop
  endfacet
  facet normal -0 0 1
    outer loop
      vertex -10 39.5 13
      vertex 0 34 13
      vertex 0 39.5 13
    endloop
  endfacet
  facet normal 0 0 1
    outer loop
      vertex -10 39.5 13
      vertex -20 34 13
      vertex 0 34 13
    endloop
  endfacet
  facet normal 0 0 1
    outer loop
      vertex -20 34 13
      vertex -10 39.5 13
      vertex -20 56 13
    endloop
  endfacet
  facet normal 0 1 0
    outer loop
      vertex 0 56 13
      vertex -5 56 7
      vertex -20 56 13
    endloop
  endfacet
  facet normal 0 1 0
    outer loop
      vertex 0 56 13
      vertex -3.43634 56 6.24698
      vertex -5 56 7
    endloop
  endfacet
  facet normal 0 1 0
    outer loop
      vertex 0 56 13
      vertex -3.05014 56 4.55496
      vertex -3.43634 56 6.24698
    endloop
  endfacet
  facet normal 0 1 0
    outer loop
      vertex -4.13223 56 3.19806
      vertex 0 56 -3
      vertex -5.86777 56 3.19806
    endloop
  endfacet
  facet normal 0 1 0
    outer loop
      vertex -3.05014 56 4.55496
      vertex 0 56 -3
      vertex -4.13223 56 3.19806
    endloop
  endfacet
  facet normal 0 1 -0
    outer loop
      vertex 0 56 -3
      vertex -3.05014 56 4.55496
      vertex 0 56 13
    endloop
  endfacet
  facet normal 0 1 -0
    outer loop
      vertex -6.56366 56 6.24698
      vertex -20 56 13
      vertex -5 56 7
    endloop
  endfacet
  facet normal 0 1 -0
    outer loop
      vertex -6.94986 56 4.55496
      vertex -20 56 13
      vertex -6.56366 56 6.24698
    endloop
  endfacet
  facet normal 0 1 0
    outer loop
      vertex -20 56 -3
      vertex -6.94986 56 4.55496
      vertex -5.86777 56 3.19806
    endloop
  endfacet
  facet normal 0 1 0
    outer loop
      vertex -20 56 -3
      vertex -5.86777 56 3.19806
      vertex 0 56 -3
    endloop
  endfacet
  facet normal 0 1 0
    outer loop
      vertex -6.94986 56 4.55496
      vertex -20 56 -3
      vertex -20 56 13
    endloop
  endfacet
  facet normal 1 -0 0
    outer loop
      vertex 0 34 13
      vertex 0 39.5 -3
      vertex 0 39.5 13
    endloop
  endfacet
  facet normal 1 0 0
    outer loop
      vertex 0 39.5 -3
      vertex 0 34 13
      vertex 0 34 -3
    endloop
  endfacet
  facet normal 1 -0 0
    outer loop
      vertex 0 50.5 13
      vertex 0 56 -3
      vertex 0 56 13
    endloop
  endfacet
  facet normal 1 0 0
    outer loop
      vertex 0 56 -3
      vertex 0 50.5 13
      vertex 0 50.5 -3
    endloop
  endfacet
  facet normal 0 -1 0
    outer loop
      vertex -20 34 13
      vertex -5 34 7
      vertex 0 34 13
    endloop
  endfacet
  facet normal 0 -1 0
    outer loop
      vertex -20 34 13
      vertex -6.56366 34 6.24698
      vertex -5 34 7
    endloop
  endfacet
  facet normal 0 -1 0
    outer loop
      vertex -20 34 13
      vertex -6.94986 34 4.55496
      vertex -6.56366 34 6.24698
    endloop
  endfacet
  facet normal 0 -1 0
    outer loop
      vertex -20 34 -3
      vertex -6.94986 34 4.55496
      vertex -20 34 13
    endloop
  endfacet
  facet normal 0 -1 0
    outer loop
      vertex 0 34 -3
      vertex -5.86777 34 3.19806
      vertex -20 34 -3
    endloop
  endfacet
  facet normal 0 -1 -0
    outer loop
      vertex -6.94986 34 4.55496
      vertex -20 34 -3
      vertex -5.86777 34 3.19806
    endloop
  endfacet
  facet normal 0 -1 0
    outer loop
      vertex -3.43634 34 6.24698
      vertex 0 34 13
      vertex -5 34 7
    endloop
  endfacet
  facet normal 0 -1 0
    outer loop
      vertex -3.05014 34 4.55496
      vertex 0 34 13
      vertex -3.43634 34 6.24698
    endloop
  endfacet
  facet normal 0 -1 0
    outer loop
      vertex -3.05014 34 4.55496
      vertex 0 34 -3
      vertex 0 34 13
    endloop
  endfacet
  facet normal 0 -1 0
    outer loop
      vertex -4.13223 34 3.19806
      vertex 0 34 -3
      vertex -3.05014 34 4.55496
    endloop
  endfacet
  facet normal 0 -1 0
    outer loop
      vertex -5.86777 34 3.19806
      vertex 0 34 -3
      vertex -4.13223 34 3.19806
    endloop
  endfacet
  facet normal -0.433884 0 -0.900969
    outer loop
      vertex -5 34 7
      vertex -3.43634 39.5 6.24698
      vertex -3.43634 34 6.24698
    endloop
  endfacet
  facet normal -0.433884 0 -0.900969
    outer loop
      vertex -3.43634 39.5 6.24698
      vertex -5 34 7
      vertex -5 39.5 7
    endloop
  endfacet
  facet normal -0.433884 0 -0.900969
    outer loop
      vertex -5 50.5 7
      vertex -3.43634 56 6.24698
      vertex -3.43634 50.5 6.24698
    endloop
  endfacet
  facet normal -0.433884 0 -0.900969
    outer loop
      vertex -3.43634 56 6.24698
      vertex -5 50.5 7
      vertex -5 56 7
    endloop
  endfacet
  facet normal -0 0 1
    outer loop
      vertex -5.86777 39.5 3.19806
      vertex -4.13223 34 3.19806
      vertex -4.13223 39.5 3.19806
    endloop
  endfacet
  facet normal 0 0 1
    outer loop
      vertex -4.13223 34 3.19806
      vertex -5.86777 39.5 3.19806
      vertex -5.86777 34 3.19806
    endloop
  endfacet
  facet normal -0 0 1
    outer loop
      vertex -5.86777 56 3.19806
      vertex -4.13223 50.5 3.19806
      vertex -4.13223 56 3.19806
    endloop
  endfacet
  facet normal 0 0 1
    outer loop
      vertex -4.13223 50.5 3.19806
      vertex -5.86777 56 3.19806
      vertex -5.86777 50.5 3.19806
    endloop
  endfacet
  facet normal -0.974927 0 -0.222525
    outer loop
      vertex -3.05014 34 4.55496
      vertex -3.43634 39.5 6.24698
      vertex -3.05014 39.5 4.55496
    endloop
  endfacet
  facet normal -0.974927 -0 -0.222525
    outer loop
      vertex -3.43634 39.5 6.24698
      vertex -3.05014 34 4.55496
      vertex -3.43634 34 6.24698
    endloop
  endfacet
  facet normal -0.974927 0 -0.222525
    outer loop
      vertex -3.05014 50.5 4.55496
      vertex -3.43634 56 6.24698
      vertex -3.05014 56 4.55496
    endloop
  endfacet
  facet normal -0.974927 -0 -0.222525
    outer loop
      vertex -3.43634 56 6.24698
      vertex -3.05014 50.5 4.55496
      vertex -3.43634 50.5 6.24698
    endloop
  endfacet
  facet normal 0.781832 -0 0.623489
    outer loop
      vertex -6.94986 34 4.55496
      vertex -5.86777 39.5 3.19806
      vertex -6.94986 39.5 4.55496
    endloop
  endfacet
  facet normal 0.781832 0 0.623489
    outer loop
      vertex -5.86777 39.5 3.19806
      vertex -6.94986 34 4.55496
      vertex -5.86777 34 3.19806
    endloop
  endfacet
  facet normal 0.781832 -0 0.623489
    outer loop
      vertex -6.94986 50.5 4.55496
      vertex -5.86777 56 3.19806
      vertex -6.94986 56 4.55496
    endloop
  endfacet
  facet normal 0.781832 0 0.623489
    outer loop
      vertex -5.86777 56 3.19806
      vertex -6.94986 50.5 4.55496
      vertex -5.86777 50.5 3.19806
    endloop
  endfacet
  facet normal -0.781832 0 0.623489
    outer loop
      vertex -4.13223 34 3.19806
      vertex -3.05014 39.5 4.55496
      vertex -4.13223 39.5 3.19806
    endloop
  endfacet
  facet normal -0.781832 0 0.623489
    outer loop
      vertex -3.05014 39.5 4.55496
      vertex -4.13223 34 3.19806
      vertex -3.05014 34 4.55496
    endloop
  endfacet
  facet normal -0.781832 0 0.623489
    outer loop
      vertex -4.13223 50.5 3.19806
      vertex -3.05014 56 4.55496
      vertex -4.13223 56 3.19806
    endloop
  endfacet
  facet normal -0.781832 0 0.623489
    outer loop
      vertex -3.05014 56 4.55496
      vertex -4.13223 50.5 3.19806
      vertex -3.05014 50.5 4.55496
    endloop
  endfacet
  facet normal 0.433884 0 -0.900969
    outer loop
      vertex -6.56366 34 6.24698
      vertex -5 39.5 7
      vertex -5 34 7
    endloop
  endfacet
  facet normal 0.433884 0 -0.900969
    outer loop
      vertex -5 39.5 7
      vertex -6.56366 34 6.24698
      vertex -6.56366 39.5 6.24698
    endloop
  endfacet
  facet normal 0.433884 0 -0.900969
    outer loop
      vertex -6.56366 50.5 6.24698
      vertex -5 56 7
      vertex -5 50.5 7
    endloop
  endfacet
  facet normal 0.433884 0 -0.900969
    outer loop
      vertex -5 56 7
      vertex -6.56366 50.5 6.24698
      vertex -6.56366 56 6.24698
    endloop
  endfacet
  facet normal 0.974927 0 -0.222525
    outer loop
      vertex -6.56366 34 6.24698
      vertex -6.94986 39.5 4.55496
      vertex -6.56366 39.5 6.24698
    endloop
  endfacet
  facet normal 0.974927 0 -0.222525
    outer loop
      vertex -6.94986 39.5 4.55496
      vertex -6.56366 34 6.24698
      vertex -6.94986 34 4.55496
    endloop
  endfacet
  facet normal 0.974927 0 -0.222525
    outer loop
      vertex -6.56366 50.5 6.24698
      vertex -6.94986 56 4.55496
      vertex -6.56366 56 6.24698
    endloop
  endfacet
  facet normal 0.974927 0 -0.222525
    outer loop
      vertex -6.94986 56 4.55496
      vertex -6.56366 50.5 6.24698
      vertex -6.94986 50.5 4.55496
    endloop
  endfacet
  facet normal 1 0 0
    outer loop
      vertex -10 50.5 13
      vertex -10 49.0947 5.93459
      vertex -10 50.5 -3
    endloop
  endfacet
  facet normal 1 0 0
    outer loop
      vertex -10 50.5 13
      vertex -10 48.2837 7.61866
      vertex -10 49.0947 5.93459
    endloop
  endfacet
  facet normal 1 0 0
    outer loop
      vertex -10 50.5 13
      vertex -10 46.8223 8.78407
      vertex -10 48.2837 7.61866
    endloop
  endfacet
  facet normal 1 0 0
    outer loop
      vertex -10 50.5 13
      vertex -10 45 9.2
      vertex -10 46.8223 8.78407
    endloop
  endfacet
  facet normal 1 -0 0
    outer loop
      vertex -10 39.5 13
      vertex -10 45 9.2
      vertex -10 50.5 13
    endloop
  endfacet
  facet normal 1 0 0
    outer loop
      vertex -10 40.9053 5.93459
      vertex -10 39.5 13
      vertex -10 40.9053 4.06541
    endloop
  endfacet
  facet normal 1 0 0
    outer loop
      vertex -10 41.7163 7.61866
      vertex -10 39.5 13
      vertex -10 40.9053 5.93459
    endloop
  endfacet
  facet normal 1 0 0
    outer loop
      vertex -10 43.1777 8.78407
      vertex -10 39.5 13
      vertex -10 41.7163 7.61866
    endloop
  endfacet
  facet normal 1 0 0
    outer loop
      vertex -10 45 9.2
      vertex -10 39.5 13
      vertex -10 43.1777 8.78407
    endloop
  endfacet
  facet normal 1 -0 0
    outer loop
      vertex -10 49.0947 4.06541
      vertex -10 50.5 -3
      vertex -10 49.0947 5.93459
    endloop
  endfacet
  facet normal 1 -0 0
    outer loop
      vertex -10 48.2837 2.38134
      vertex -10 50.5 -3
      vertex -10 49.0947 4.06541
    endloop
  endfacet
  facet normal 1 -0 0
    outer loop
      vertex -10 46.8223 1.21593
      vertex -10 50.5 -3
      vertex -10 48.2837 2.38134
    endloop
  endfacet
  facet normal 1 -0 0
    outer loop
      vertex -10 45 0.799999
      vertex -10 50.5 -3
      vertex -10 46.8223 1.21593
    endloop
  endfacet
  facet normal 1 0 0
    outer loop
      vertex -10 39.5 -3
      vertex -10 45 0.799999
      vertex -10 43.1777 1.21593
    endloop
  endfacet
  facet normal 1 0 0
    outer loop
      vertex -10 45 0.799999
      vertex -10 39.5 -3
      vertex -10 50.5 -3
    endloop
  endfacet
  facet normal 1 0 0
    outer loop
      vertex -10 41.7163 2.38134
      vertex -10 39.5 -3
      vertex -10 43.1777 1.21593
    endloop
  endfacet
  facet normal 1 0 0
    outer loop
      vertex -10 40.9053 4.06541
      vertex -10 39.5 -3
      vertex -10 41.7163 2.38134
    endloop
  endfacet
  facet normal 1 0 0
    outer loop
      vertex -10 39.5 -3
      vertex -10 40.9053 4.06541
      vertex -10 39.5 13
    endloop
  endfacet
  facet normal 0 -1 0
    outer loop
      vertex -10 50.5 13
      vertex -5 50.5 7
      vertex 0 50.5 13
    endloop
  endfacet
  facet normal 0 -1 0
    outer loop
      vertex -10 50.5 13
      vertex -6.56366 50.5 6.24698
      vertex -5 50.5 7
    endloop
  endfacet
  facet normal 0 -1 0
    outer loop
      vertex -10 50.5 13
      vertex -6.94986 50.5 4.55496
      vertex -6.56366 50.5 6.24698
    endloop
  endfacet
  facet normal 0 -1 -0
    outer loop
      vertex -5.86777 50.5 3.19806
      vertex -10 50.5 -3
      vertex -4.13223 50.5 3.19806
    endloop
  endfacet
  facet normal 0 -1 -0
    outer loop
      vertex -6.94986 50.5 4.55496
      vertex -10 50.5 -3
      vertex -5.86777 50.5 3.19806
    endloop
  endfacet
  facet normal 0 -1 0
    outer loop
      vertex -10 50.5 -3
      vertex -6.94986 50.5 4.55496
      vertex -10 50.5 13
    endloop
  endfacet
  facet normal 0 -1 0
    outer loop
      vertex -3.43634 50.5 6.24698
      vertex 0 50.5 13
      vertex -5 50.5 7
    endloop
  endfacet
  facet normal 0 -1 0
    outer loop
      vertex -3.05014 50.5 4.55496
      vertex 0 50.5 13
      vertex -3.43634 50.5 6.24698
    endloop
  endfacet
  facet normal 0 -1 0
    outer loop
      vertex -3.05014 50.5 4.55496
      vertex 0 50.5 -3
      vertex 0 50.5 13
    endloop
  endfacet
  facet normal 0 -1 0
    outer loop
      vertex -4.13223 50.5 3.19806
      vertex 0 50.5 -3
      vertex -3.05014 50.5 4.55496
    endloop
  endfacet
  facet normal 0 -1 0
    outer loop
      vertex 0 50.5 -3
      vertex -4.13223 50.5 3.19806
      vertex -10 50.5 -3
    endloop
  endfacet
  facet normal 0 1 0
    outer loop
      vertex 0 39.5 13
      vertex -5 39.5 7
      vertex -10 39.5 13
    endloop
  endfacet
  facet normal 0 1 0
    outer loop
      vertex 0 39.5 13
      vertex -3.43634 39.5 6.24698
      vertex -5 39.5 7
    endloop
  endfacet
  facet normal 0 1 0
    outer loop
      vertex 0 39.5 13
      vertex -3.05014 39.5 4.55496
      vertex -3.43634 39.5 6.24698
    endloop
  endfacet
  facet normal 0 1 0
    outer loop
      vertex -4.13223 39.5 3.19806
      vertex 0 39.5 -3
      vertex -5.86777 39.5 3.19806
    endloop
  endfacet
  facet normal 0 1 0
    outer loop
      vertex -3.05014 39.5 4.55496
      vertex 0 39.5 -3
      vertex -4.13223 39.5 3.19806
    endloop
  endfacet
  facet normal 0 1 -0
    outer loop
      vertex 0 39.5 -3
      vertex -3.05014 39.5 4.55496
      vertex 0 39.5 13
    endloop
  endfacet
  facet normal 0 1 -0
    outer loop
      vertex -6.56366 39.5 6.24698
      vertex -10 39.5 13
      vertex -5 39.5 7
    endloop
  endfacet
  facet normal 0 1 -0
    outer loop
      vertex -6.94986 39.5 4.55496
      vertex -10 39.5 13
      vertex -6.56366 39.5 6.24698
    endloop
  endfacet
  facet normal 0 1 0
    outer loop
      vertex -6.94986 39.5 4.55496
      vertex -10 39.5 -3
      vertex -10 39.5 13
    endloop
  endfacet
  facet normal 0 1 0
    outer loop
      vertex -5.86777 39.5 3.19806
      vertex -10 39.5 -3
      vertex -6.94986 39.5 4.55496
    endloop
  endfacet
  facet normal 0 1 0
    outer loop
      vertex -10 39.5 -3
      vertex -5.86777 39.5 3.19806
      vertex 0 39.5 -3
    endloop
  endfacet
  facet normal 0 -0.382676 -0.923883
    outer loop
      vertex -20 45 7.5
      vertex -15 46.7678 6.76777
      vertex -15 45 7.5
    endloop
  endfacet
  facet normal -0 -0.382676 -0.923883
    outer loop
      vertex -15 46.7678 6.76777
      vertex -20 45 7.5
      vertex -20 46.7678 6.76777
    endloop
  endfacet
  facet normal 0 -0.923886 0.382668
    outer loop
      vertex -20 46.7678 3.23223
      vertex -15 47.5 5
      vertex -20 47.5 5
    endloop
  endfacet
  facet normal 0 -0.923886 0.382668
    outer loop
      vertex -15 47.5 5
      vertex -20 46.7678 3.23223
      vertex -15 46.7678 3.23223
    endloop
  endfacet
  facet normal 0 -0.923886 -0.382668
    outer loop
      vertex -20 47.5 5
      vertex -15 46.7678 6.76777
      vertex -20 46.7678 6.76777
    endloop
  endfacet
  facet normal 0 -0.923886 -0.382668
    outer loop
      vertex -15 46.7678 6.76777
      vertex -20 47.5 5
      vertex -15 47.5 5
    endloop
  endfacet
  facet normal 0 -0.382676 0.923883
    outer loop
      vertex -20 46.7678 3.23223
      vertex -15 45 2.5
      vertex -15 46.7678 3.23223
    endloop
  endfacet
  facet normal 0 -0.382676 0.923883
    outer loop
      vertex -15 45 2.5
      vertex -20 46.7678 3.23223
      vertex -20 45 2.5
    endloop
  endfacet
  facet normal 0 0.382676 -0.923883
    outer loop
      vertex -20 43.2322 6.76777
      vertex -15 45 7.5
      vertex -15 43.2322 6.76777
    endloop
  endfacet
  facet normal 0 0.382676 -0.923883
    outer loop
      vertex -15 45 7.5
      vertex -20 43.2322 6.76777
      vertex -20 45 7.5
    endloop
  endfacet
  facet normal 0 0.923886 0.382668
    outer loop
      vertex -15 43.2322 3.23223
      vertex -20 42.5 5
      vertex -15 42.5 5
    endloop
  endfacet
  facet normal 0 0.923886 0.382668
    outer loop
      vertex -20 42.5 5
      vertex -15 43.2322 3.23223
      vertex -20 43.2322 3.23223
    endloop
  endfacet
  facet normal -0 0.382676 0.923883
    outer loop
      vertex -20 45 2.5
      vertex -15 43.2322 3.23223
      vertex -15 45 2.5
    endloop
  endfacet
  facet normal 0 0.382676 0.923883
    outer loop
      vertex -15 43.2322 3.23223
      vertex -20 45 2.5
      vertex -20 43.2322 3.23223
    endloop
  endfacet
  facet normal 0 0.923886 -0.382668
    outer loop
      vertex -15 42.5 5
      vertex -20 43.2322 6.76777
      vertex -15 43.2322 6.76777
    endloop
  endfacet
  facet normal 0 0.923886 -0.382668
    outer loop
      vertex -20 43.2322 6.76777
      vertex -15 42.5 5
      vertex -20 42.5 5
    endloop
  endfacet
  facet normal 0 -0.222522 -0.974928
    outer loop
      vertex -15 45 9.2
      vertex -10 46.8223 8.78407
      vertex -10 45 9.2
    endloop
  endfacet
  facet normal -0 -0.222522 -0.974928
    outer loop
      vertex -10 46.8223 8.78407
      vertex -15 45 9.2
      vertex -15 46.8223 8.78407
    endloop
  endfacet
  facet normal 0 -1 0
    outer loop
      vertex -15 49.0947 4.06541
      vertex -10 49.0947 5.93459
      vertex -15 49.0947 5.93459
    endloop
  endfacet
  facet normal 0 -1 -0
    outer loop
      vertex -10 49.0947 5.93459
      vertex -15 49.0947 4.06541
      vertex -10 49.0947 4.06541
    endloop
  endfacet
  facet normal 0 -0.90097 -0.433881
    outer loop
      vertex -15 49.0947 5.93459
      vertex -10 48.2837 7.61866
      vertex -15 48.2837 7.61866
    endloop
  endfacet
  facet normal 0 -0.90097 -0.433881
    outer loop
      vertex -10 48.2837 7.61866
      vertex -15 49.0947 5.93459
      vertex -10 49.0947 5.93459
    endloop
  endfacet
  facet normal 0 -0.623484 -0.781836
    outer loop
      vertex -15 46.8223 8.78407
      vertex -10 48.2837 7.61866
      vertex -10 46.8223 8.78407
    endloop
  endfacet
  facet normal -0 -0.623484 -0.781836
    outer loop
      vertex -10 48.2837 7.61866
      vertex -15 46.8223 8.78407
      vertex -15 48.2837 7.61866
    endloop
  endfacet
  facet normal 0 -0.623484 0.781836
    outer loop
      vertex -15 48.2837 2.38134
      vertex -10 46.8223 1.21593
      vertex -10 48.2837 2.38134
    endloop
  endfacet
  facet normal 0 -0.623484 0.781836
    outer loop
      vertex -10 46.8223 1.21593
      vertex -15 48.2837 2.38134
      vertex -15 46.8223 1.21593
    endloop
  endfacet
  facet normal 0 -0.222522 0.974928
    outer loop
      vertex -15 46.8223 1.21593
      vertex -10 45 0.799999
      vertex -10 46.8223 1.21593
    endloop
  endfacet
  facet normal 0 -0.222522 0.974928
    outer loop
      vertex -10 45 0.799999
      vertex -15 46.8223 1.21593
      vertex -15 45 0.799999
    endloop
  endfacet
  facet normal 1 -0 0
    outer loop
      vertex -15 46.7678 6.76777
      vertex -15 49.0947 5.93459
      vertex -15 48.2837 7.61866
    endloop
  endfacet
  facet normal 1 0 0
    outer loop
      vertex -15 49.0947 5.93459
      vertex -15 47.5 5
      vertex -15 49.0947 4.06541
    endloop
  endfacet
  facet normal 1 0 0
    outer loop
      vertex -15 46.7678 3.23223
      vertex -15 49.0947 4.06541
      vertex -15 47.5 5
    endloop
  endfacet
  facet normal 1 0 0
    outer loop
      vertex -15 46.7678 6.76777
      vertex -15 48.2837 7.61866
      vertex -15 46.8223 8.78407
    endloop
  endfacet
  facet normal 1 0 0
    outer loop
      vertex -15 49.0947 5.93459
      vertex -15 46.7678 6.76777
      vertex -15 47.5 5
    endloop
  endfacet
  facet normal 1 0 0
    outer loop
      vertex -15 45 7.5
      vertex -15 46.8223 8.78407
      vertex -15 45 9.2
    endloop
  endfacet
  facet normal 1 0 0
    outer loop
      vertex -15 46.8223 8.78407
      vertex -15 45 7.5
      vertex -15 46.7678 6.76777
    endloop
  endfacet
  facet normal 1 -0 0
    outer loop
      vertex -15 43.1777 8.78407
      vertex -15 45 7.5
      vertex -15 45 9.2
    endloop
  endfacet
  facet normal 1 0 0
    outer loop
      vertex -15 45 7.5
      vertex -15 43.1777 8.78407
      vertex -15 43.2322 6.76777
    endloop
  endfacet
  facet normal 1 -0 0
    outer loop
      vertex -15 41.7163 7.61866
      vertex -15 43.2322 6.76777
      vertex -15 43.1777 8.78407
    endloop
  endfacet
  facet normal 1 0 0
    outer loop
      vertex -15 40.9053 5.93459
      vertex -15 43.2322 6.76777
      vertex -15 41.7163 7.61866
    endloop
  endfacet
  facet normal 1 0 0
    outer loop
      vertex -15 49.0947 4.06541
      vertex -15 46.7678 3.23223
      vertex -15 48.2837 2.38134
    endloop
  endfacet
  facet normal 1 0 0
    outer loop
      vertex -15 48.2837 2.38134
      vertex -15 46.7678 3.23223
      vertex -15 46.8223 1.21593
    endloop
  endfacet
  facet normal 1 -0 0
    outer loop
      vertex -15 45 2.5
      vertex -15 46.8223 1.21593
      vertex -15 46.7678 3.23223
    endloop
  endfacet
  facet normal 1 0 0
    outer loop
      vertex -15 45 2.5
      vertex -15 45 0.799999
      vertex -15 46.8223 1.21593
    endloop
  endfacet
  facet normal 1 0 0
    outer loop
      vertex -15 43.1777 1.21593
      vertex -15 45 2.5
      vertex -15 43.2322 3.23223
    endloop
  endfacet
  facet normal 1 0 0
    outer loop
      vertex -15 45 2.5
      vertex -15 43.1777 1.21593
      vertex -15 45 0.799999
    endloop
  endfacet
  facet normal 1 -0 0
    outer loop
      vertex -15 40.9053 4.06541
      vertex -15 43.2322 3.23223
      vertex -15 42.5 5
    endloop
  endfacet
  facet normal 1 0 0
    outer loop
      vertex -15 43.2322 6.76777
      vertex -15 40.9053 5.93459
      vertex -15 42.5 5
    endloop
  endfacet
  facet normal 1 0 0
    outer loop
      vertex -15 43.2322 3.23223
      vertex -15 41.7163 2.38134
      vertex -15 43.1777 1.21593
    endloop
  endfacet
  facet normal 1 0 0
    outer loop
      vertex -15 40.9053 4.06541
      vertex -15 42.5 5
      vertex -15 40.9053 5.93459
    endloop
  endfacet
  facet normal 1 0 0
    outer loop
      vertex -15 43.2322 3.23223
      vertex -15 40.9053 4.06541
      vertex -15 41.7163 2.38134
    endloop
  endfacet
  facet normal 0 -0.90097 0.433881
    outer loop
      vertex -15 48.2837 2.38134
      vertex -10 49.0947 4.06541
      vertex -15 49.0947 4.06541
    endloop
  endfacet
  facet normal 0 -0.90097 0.433881
    outer loop
      vertex -10 49.0947 4.06541
      vertex -15 48.2837 2.38134
      vertex -10 48.2837 2.38134
    endloop
  endfacet
  facet normal 0 0.90097 -0.433881
    outer loop
      vertex -10 40.9053 5.93459
      vertex -15 41.7163 7.61866
      vertex -10 41.7163 7.61866
    endloop
  endfacet
  facet normal 0 0.90097 -0.433881
    outer loop
      vertex -15 41.7163 7.61866
      vertex -10 40.9053 5.93459
      vertex -15 40.9053 5.93459
    endloop
  endfacet
  facet normal 0 0.222522 -0.974928
    outer loop
      vertex -15 43.1777 8.78407
      vertex -10 45 9.2
      vertex -10 43.1777 8.78407
    endloop
  endfacet
  facet normal 0 0.222522 -0.974928
    outer loop
      vertex -10 45 9.2
      vertex -15 43.1777 8.78407
      vertex -15 45 9.2
    endloop
  endfacet
  facet normal 0 1 -0
    outer loop
      vertex -10 40.9053 4.06541
      vertex -15 40.9053 5.93459
      vertex -10 40.9053 5.93459
    endloop
  endfacet
  facet normal 0 1 0
    outer loop
      vertex -15 40.9053 5.93459
      vertex -10 40.9053 4.06541
      vertex -15 40.9053 4.06541
    endloop
  endfacet
  facet normal -0 0.623484 0.781836
    outer loop
      vertex -15 43.1777 1.21593
      vertex -10 41.7163 2.38134
      vertex -10 43.1777 1.21593
    endloop
  endfacet
  facet normal 0 0.623484 0.781836
    outer loop
      vertex -10 41.7163 2.38134
      vertex -15 43.1777 1.21593
      vertex -15 41.7163 2.38134
    endloop
  endfacet
  facet normal -0 0.222522 0.974928
    outer loop
      vertex -15 45 0.799999
      vertex -10 43.1777 1.21593
      vertex -10 45 0.799999
    endloop
  endfacet
  facet normal 0 0.222522 0.974928
    outer loop
      vertex -10 43.1777 1.21593
      vertex -15 45 0.799999
      vertex -15 43.1777 1.21593
    endloop
  endfacet
  facet normal 0 0.623484 -0.781836
    outer loop
      vertex -15 41.7163 7.61866
      vertex -10 43.1777 8.78407
      vertex -10 41.7163 7.61866
    endloop
  endfacet
  facet normal 0 0.623484 -0.781836
    outer loop
      vertex -10 43.1777 8.78407
      vertex -15 41.7163 7.61866
      vertex -15 43.1777 8.78407
    endloop
  endfacet
  facet normal 0 0.90097 0.433881
    outer loop
      vertex -10 41.7163 2.38134
      vertex -15 40.9053 4.06541
      vertex -10 40.9053 4.06541
    endloop
  endfacet
  facet normal 0 0.90097 0.433881
    outer loop
      vertex -15 40.9053 4.06541
      vertex -10 41.7163 2.38134
      vertex -15 41.7163 2.38134
    endloop
  endfacet
endsolid OpenSCAD_Model
