solid OpenSCAD_Model
  facet normal -0 0 1
    outer loop
      vertex 0 11 10
      vertex 31.5 7.5 10
      vertex 31.5 11 10
    endloop
  endfacet
  facet normal 0 0 1
    outer loop
      vertex 31.5 7.5 10
      vertex 0 11 10
      vertex 0 7.5 10
    endloop
  endfacet
  facet normal -0 0 1
    outer loop
      vertex 0 2.5 10
      vertex 3 -3.125 10
      vertex 3 2.5 10
    endloop
  endfacet
  facet normal 0 0 1
    outer loop
      vertex 3 -3.125 10
      vertex 0 2.5 10
      vertex 0 -3.125 10
    endloop
  endfacet
  facet normal 0 0 1
    outer loop
      vertex 31.5 2.5 10
      vertex 14.1 -1 10
      vertex 31.5 -1 10
    endloop
  endfacet
  facet normal -0 0 1
    outer loop
      vertex 10.9 2.5 10
      vertex 14.1 -1 10
      vertex 31.5 2.5 10
    endloop
  endfacet
  facet normal 0 0 1
    outer loop
      vertex 10.9 -3.125 10
      vertex 14.1 -1 10
      vertex 10.9 2.5 10
    endloop
  endfacet
  facet normal 0 0 1
    outer loop
      vertex 14.1 -1 10
      vertex 10.9 -3.125 10
      vertex 14.1 -3.125 10
    endloop
  endfacet
  facet normal 0 -1 0
    outer loop
      vertex 0 -3.125 10
      vertex 3 -3.125 6.80676
      vertex 3 -3.125 10
    endloop
  endfacet
  facet normal 0 -1 0
    outer loop
      vertex 0 -3.125 10
      vertex 2.82989 -3.125 5.4058
      vertex 3 -3.125 6.80676
    endloop
  endfacet
  facet normal 0 -1 0
    outer loop
      vertex 0 -3.125 0
      vertex 2.82989 -3.125 5.4058
      vertex 0 -3.125 10
    endloop
  endfacet
  facet normal 0 -1 -0
    outer loop
      vertex 4.99463 -3.125 2.26963
      vertex 0 -3.125 0
      vertex 6.9 -3.125 1.8
    endloop
  endfacet
  facet normal 0 -1 -0
    outer loop
      vertex 3.52577 -3.125 3.57094
      vertex 0 -3.125 0
      vertex 4.99463 -3.125 2.26963
    endloop
  endfacet
  facet normal 0 -1 -0
    outer loop
      vertex 2.82989 -3.125 5.4058
      vertex 0 -3.125 0
      vertex 3.52577 -3.125 3.57094
    endloop
  endfacet
  facet normal 0 -1 -0
    outer loop
      vertex 10.8162 -3.125 5
      vertex 10.2742 -3.125 3.57094
      vertex 10.9 -3.125 5
    endloop
  endfacet
  facet normal 0 -1 0
    outer loop
      vertex 10.9 -3.125 5.98318
      vertex 14.1 -3.125 10
      vertex 10.9 -3.125 10
    endloop
  endfacet
  facet normal 0 -1 0
    outer loop
      vertex 10.9701 -3.125 5.4058
      vertex 14.1 -3.125 10
      vertex 10.9 -3.125 5.98318
    endloop
  endfacet
  facet normal 0 -1 0
    outer loop
      vertex 10.9 -3.125 5
      vertex 10.9701 -3.125 5.4058
      vertex 10.9 -3.125 5.22094
    endloop
  endfacet
  facet normal 0 -1 0
    outer loop
      vertex 14.1 -3.125 0
      vertex 10.9701 -3.125 5.4058
      vertex 10.9 -3.125 5
    endloop
  endfacet
  facet normal 0 -1 0
    outer loop
      vertex 14.1 -3.125 0
      vertex 10.9 -3.125 5
      vertex 10.2742 -3.125 3.57094
    endloop
  endfacet
  facet normal 0 -1 0
    outer loop
      vertex 14.1 -3.125 0
      vertex 6.9 -3.125 1.8
      vertex 0 -3.125 0
    endloop
  endfacet
  facet normal 0 -1 0
    outer loop
      vertex 10.9701 -3.125 5.4058
      vertex 14.1 -3.125 0
      vertex 14.1 -3.125 10
    endloop
  endfacet
  facet normal 0 -1 0
    outer loop
      vertex 8.80536 -3.125 2.26963
      vertex 14.1 -3.125 0
      vertex 10.2742 -3.125 3.57094
    endloop
  endfacet
  facet normal 0 -1 0
    outer loop
      vertex 6.9 -3.125 1.8
      vertex 14.1 -3.125 0
      vertex 8.80536 -3.125 2.26963
    endloop
  endfacet
  facet normal 0 0 -1
    outer loop
      vertex 14.1 -3.125 0
      vertex 0 -3.125 0
      vertex 14.1 -1 0
    endloop
  endfacet
  facet normal 0 0 -1
    outer loop
      vertex 35 -1 0
      vertex 31.5 0 0
      vertex 35 0 0
    endloop
  endfacet
  facet normal -0 0 -1
    outer loop
      vertex 31.5 0 0
      vertex 14.1 -1 0
      vertex 31.5 10 0
    endloop
  endfacet
  facet normal 0 0 -1
    outer loop
      vertex 14.1 -1 0
      vertex 31.5 0 0
      vertex 35 -1 0
    endloop
  endfacet
  facet normal 0 0 -1
    outer loop
      vertex 31.5 10 0
      vertex 35 11 0
      vertex 35 10 0
    endloop
  endfacet
  facet normal 0 0 -1
    outer loop
      vertex 0 11 0
      vertex 14.1 -1 0
      vertex 0 -3.125 0
    endloop
  endfacet
  facet normal 0 0 -1
    outer loop
      vertex 31.5 10 0
      vertex 0 11 0
      vertex 35 11 0
    endloop
  endfacet
  facet normal 0 0 -1
    outer loop
      vertex 14.1 -1 0
      vertex 0 11 0
      vertex 31.5 10 0
    endloop
  endfacet
  facet normal 1 -0 0
    outer loop
      vertex 14.1 -3.125 10
      vertex 14.1 -1 0
      vertex 14.1 -1 10
    endloop
  endfacet
  facet normal 1 0 0
    outer loop
      vertex 14.1 -1 0
      vertex 14.1 -3.125 10
      vertex 14.1 -3.125 0
    endloop
  endfacet
  facet normal -1 0 0
    outer loop
      vertex 0 11 0
      vertex 0 7.5 5
      vertex 0 11 10
    endloop
  endfacet
  facet normal -1 0 0
    outer loop
      vertex 0 11 0
      vertex 0 2.5 5
      vertex 0 7.5 5
    endloop
  endfacet
  facet normal -1 0 0
    outer loop
      vertex 0 -3.125 0
      vertex 0 2.5 5
      vertex 0 11 0
    endloop
  endfacet
  facet normal -1 0 0
    outer loop
      vertex 0 -3.125 10
      vertex 0 2.5 5
      vertex 0 -3.125 0
    endloop
  endfacet
  facet normal -1 0 0
    outer loop
      vertex 0 2.5 5
      vertex 0 -3.125 10
      vertex 0 2.5 10
    endloop
  endfacet
  facet normal -1 -0 0
    outer loop
      vertex 0 11 10
      vertex 0 7.5 5
      vertex 0 7.5 10
    endloop
  endfacet
  facet normal -0.239316 0 0.970942
    outer loop
      vertex 6.9 -1 1.8
      vertex 8.80536 -3.125 2.26963
      vertex 8.80536 -1 2.26963
    endloop
  endfacet
  facet normal -0.239316 0 0.970942
    outer loop
      vertex 8.80536 -3.125 2.26963
      vertex 6.9 -1 1.8
      vertex 6.9 -3.125 1.8
    endloop
  endfacet
  facet normal -0.663132 0 0.748503
    outer loop
      vertex 8.80536 -1 2.26963
      vertex 10.2742 -3.125 3.57094
      vertex 10.2742 -1 3.57094
    endloop
  endfacet
  facet normal -0.663132 0 0.748503
    outer loop
      vertex 10.2742 -3.125 3.57094
      vertex 8.80536 -1 2.26963
      vertex 8.80536 -3.125 2.26963
    endloop
  endfacet
  facet normal -0.99271 0 -0.120525
    outer loop
      vertex 10.9701 -3.125 5.4058
      vertex 10.9 -1 5.98318
      vertex 10.9701 -1 5.4058
    endloop
  endfacet
  facet normal -0.99271 -0 -0.120525
    outer loop
      vertex 10.9 -1 5.98318
      vertex 10.9701 -3.125 5.4058
      vertex 10.9 -3.125 5.98318
    endloop
  endfacet
  facet normal 0.935015 -0 0.354609
    outer loop
      vertex 2.82989 -3.125 5.4058
      vertex 3.52577 -1 3.57094
      vertex 2.82989 -1 5.4058
    endloop
  endfacet
  facet normal 0.935015 0 0.354609
    outer loop
      vertex 3.52577 -1 3.57094
      vertex 2.82989 -3.125 5.4058
      vertex 3.52577 -3.125 3.57094
    endloop
  endfacet
  facet normal -0.93503 0 0.354569
    outer loop
      vertex 10.9 -3.125 5.22094
      vertex 10.9701 -1 5.4058
      vertex 10.9 -1 5.22094
    endloop
  endfacet
  facet normal -0.93503 0 0.354569
    outer loop
      vertex 10.9701 -1 5.4058
      vertex 10.9 -3.125 5.22094
      vertex 10.9701 -3.125 5.4058
    endloop
  endfacet
  facet normal -0.93501 0 0.354621
    outer loop
      vertex 10.2742 -3.125 3.57094
      vertex 10.8162 -1 5
      vertex 10.2742 -1 3.57094
    endloop
  endfacet
  facet normal -0.93501 0 0.354621
    outer loop
      vertex 10.8162 -1 5
      vertex 10.2742 -3.125 3.57094
      vertex 10.8162 -3.125 5
    endloop
  endfacet
  facet normal 0.663127 0 0.748507
    outer loop
      vertex 3.52577 -1 3.57094
      vertex 4.99463 -3.125 2.26963
      vertex 4.99463 -1 2.26963
    endloop
  endfacet
  facet normal 0.663127 0 0.748507
    outer loop
      vertex 4.99463 -3.125 2.26963
      vertex 3.52577 -1 3.57094
      vertex 3.52577 -3.125 3.57094
    endloop
  endfacet
  facet normal 0.239315 0 0.970942
    outer loop
      vertex 4.99463 -1 2.26963
      vertex 6.9 -3.125 1.8
      vertex 6.9 -1 1.8
    endloop
  endfacet
  facet normal 0.239315 0 0.970942
    outer loop
      vertex 6.9 -3.125 1.8
      vertex 4.99463 -1 2.26963
      vertex 4.99463 -3.125 2.26963
    endloop
  endfacet
  facet normal 0.992709 0 -0.120539
    outer loop
      vertex 3 -3.125 6.80676
      vertex 2.82989 -1 5.4058
      vertex 3 -1 6.80676
    endloop
  endfacet
  facet normal 0.992709 0 -0.120539
    outer loop
      vertex 2.82989 -1 5.4058
      vertex 3 -3.125 6.80676
      vertex 2.82989 -3.125 5.4058
    endloop
  endfacet
  facet normal -1 0 0
    outer loop
      vertex 10.9 -1 5.98318
      vertex 10.9 2.5 5
      vertex 10.9 -1 5.22094
    endloop
  endfacet
  facet normal -1 0 0
    outer loop
      vertex 10.9 -3.125 5
      vertex 10.9 -1 5.22094
      vertex 10.9 2.5 5
    endloop
  endfacet
  facet normal -1 -0 0
    outer loop
      vertex 10.9 -1 5.22094
      vertex 10.9 -3.125 5
      vertex 10.9 -3.125 5.22094
    endloop
  endfacet
  facet normal -1 0 0
    outer loop
      vertex 10.9 2.5 5
      vertex 10.9 -1 5.98318
      vertex 10.9 2.5 10
    endloop
  endfacet
  facet normal -1 0 0
    outer loop
      vertex 10.9 -3.125 10
      vertex 10.9 -1 5.98318
      vertex 10.9 -3.125 5.98318
    endloop
  endfacet
  facet normal -1 0 0
    outer loop
      vertex 10.9 -1 5.98318
      vertex 10.9 -3.125 10
      vertex 10.9 2.5 10
    endloop
  endfacet
  facet normal -0 0 1
    outer loop
      vertex 31.8483 7.5 5
      vertex 35 2.5 5
      vertex 35 7.5 5
    endloop
  endfacet
  facet normal 0 0 1
    outer loop
      vertex 35 2.5 5
      vertex 31.8483 7.5 5
      vertex 31.8483 2.5 5
    endloop
  endfacet
  facet normal 0 0 1
    outer loop
      vertex 28.1517 7.5 5
      vertex 10.9 2.5 5
      vertex 28.1517 2.5 5
    endloop
  endfacet
  facet normal 0 0 1
    outer loop
      vertex 10.9 2.5 5
      vertex 10.8162 -1 5
      vertex 10.9 -3.125 5
    endloop
  endfacet
  facet normal 0 0 1
    outer loop
      vertex 10.9 2.5 5
      vertex 3 2.5 5
      vertex 10.8162 -1 5
    endloop
  endfacet
  facet normal -0 0 1
    outer loop
      vertex 0 7.5 5
      vertex 10.9 2.5 5
      vertex 28.1517 7.5 5
    endloop
  endfacet
  facet normal 0 0 1
    outer loop
      vertex 10.9 2.5 5
      vertex 0 7.5 5
      vertex 3 2.5 5
    endloop
  endfacet
  facet normal 0 0 1
    outer loop
      vertex 3 2.5 5
      vertex 0 7.5 5
      vertex 0 2.5 5
    endloop
  endfacet
  facet normal 0 0 1
    outer loop
      vertex 10.9 -3.125 5
      vertex 10.8162 -1 5
      vertex 10.8162 -3.125 5
    endloop
  endfacet
  facet normal 0 0 1
    outer loop
      vertex 10.8162 -1 5
      vertex 3 2.5 5
      vertex 3 -1 5
    endloop
  endfacet
  facet normal 1 0 0
    outer loop
      vertex 3 2.5 10
      vertex 3 -1 6.80676
      vertex 3 2.5 5
    endloop
  endfacet
  facet normal 1 -0 0
    outer loop
      vertex 3 -3.125 10
      vertex 3 -1 6.80676
      vertex 3 2.5 10
    endloop
  endfacet
  facet normal 1 0 0
    outer loop
      vertex 3 -1 6.80676
      vertex 3 -3.125 10
      vertex 3 -3.125 6.80676
    endloop
  endfacet
  facet normal 1 0 0
    outer loop
      vertex 3 2.5 5
      vertex 3 -1 6.80676
      vertex 3 -1 5
    endloop
  endfacet
  facet normal 0 1 0
    outer loop
      vertex 29.1322 11 6.80194
      vertex 31.5 11 10
      vertex 30.8678 11 6.80194
    endloop
  endfacet
  facet normal 0 1 0
    outer loop
      vertex 35 11 6.5
      vertex 30.8678 11 6.80194
      vertex 31.5 11 10
    endloop
  endfacet
  facet normal 0 1 0
    outer loop
      vertex 35 11 6.5
      vertex 31.9499 11 5.44504
      vertex 30.8678 11 6.80194
    endloop
  endfacet
  facet normal 0 1 0
    outer loop
      vertex 35 11 6.5
      vertex 31.5637 11 3.75302
      vertex 31.9499 11 5.44504
    endloop
  endfacet
  facet normal 0 1 0
    outer loop
      vertex 31.5637 11 3.75302
      vertex 35 11 0
      vertex 30 11 3
    endloop
  endfacet
  facet normal 0 1 -0
    outer loop
      vertex 35 11 0
      vertex 31.5637 11 3.75302
      vertex 35 11 6.5
    endloop
  endfacet
  facet normal 0 1 0
    outer loop
      vertex 31.5 11 10
      vertex 29.1322 11 6.80194
      vertex 0 11 10
    endloop
  endfacet
  facet normal 0 1 -0
    outer loop
      vertex 28.0501 11 5.44504
      vertex 0 11 10
      vertex 29.1322 11 6.80194
    endloop
  endfacet
  facet normal 0 1 0
    outer loop
      vertex 0 11 0
      vertex 28.0501 11 5.44504
      vertex 28.4363 11 3.75302
    endloop
  endfacet
  facet normal 0 1 0
    outer loop
      vertex 0 11 0
      vertex 28.4363 11 3.75302
      vertex 30 11 3
    endloop
  endfacet
  facet normal 0 1 0
    outer loop
      vertex 0 11 0
      vertex 30 11 3
      vertex 35 11 0
    endloop
  endfacet
  facet normal 0 1 0
    outer loop
      vertex 28.0501 11 5.44504
      vertex 0 11 0
      vertex 0 11 10
    endloop
  endfacet
  facet normal 0 -1 0
    outer loop
      vertex 14.1 -1 10
      vertex 29.1322 -1 6.80194
      vertex 31.5 -1 10
    endloop
  endfacet
  facet normal 0 -1 0
    outer loop
      vertex 14.1 -1 10
      vertex 28.0501 -1 5.44504
      vertex 29.1322 -1 6.80194
    endloop
  endfacet
  facet normal 0 -1 0
    outer loop
      vertex 14.1 -1 0
      vertex 28.0501 -1 5.44504
      vertex 14.1 -1 10
    endloop
  endfacet
  facet normal 0 -1 -0
    outer loop
      vertex 28.0501 -1 5.44504
      vertex 14.1 -1 0
      vertex 28.4363 -1 3.75302
    endloop
  endfacet
  facet normal 0 -1 -0
    outer loop
      vertex 28.4363 -1 3.75302
      vertex 14.1 -1 0
      vertex 30 -1 3
    endloop
  endfacet
  facet normal 0 -1 0
    outer loop
      vertex 30.8678 -1 6.80194
      vertex 31.5 -1 10
      vertex 29.1322 -1 6.80194
    endloop
  endfacet
  facet normal 0 -1 0
    outer loop
      vertex 30.8678 -1 6.80194
      vertex 35 -1 6.5
      vertex 31.5 -1 10
    endloop
  endfacet
  facet normal 0 -1 0
    outer loop
      vertex 31.9499 -1 5.44504
      vertex 35 -1 6.5
      vertex 30.8678 -1 6.80194
    endloop
  endfacet
  facet normal 0 -1 0
    outer loop
      vertex 31.5637 -1 3.75302
      vertex 35 -1 6.5
      vertex 31.9499 -1 5.44504
    endloop
  endfacet
  facet normal 0 -1 0
    outer loop
      vertex 31.5637 -1 3.75302
      vertex 35 -1 0
      vertex 35 -1 6.5
    endloop
  endfacet
  facet normal 0 -1 0
    outer loop
      vertex 30 -1 3
      vertex 35 -1 0
      vertex 31.5637 -1 3.75302
    endloop
  endfacet
  facet normal 0 -1 0
    outer loop
      vertex 35 -1 0
      vertex 30 -1 3
      vertex 14.1 -1 0
    endloop
  endfacet
  facet normal 0 -1 0
    outer loop
      vertex 2.82989 -1 5.4058
      vertex 3 -1 5
      vertex 3 -1 6.80676
    endloop
  endfacet
  facet normal 0 -1 0
    outer loop
      vertex 3.52577 -1 3.57094
      vertex 3 -1 5
      vertex 2.82989 -1 5.4058
    endloop
  endfacet
  facet normal 0 -1 0
    outer loop
      vertex 4.99463 -1 2.26963
      vertex 3 -1 5
      vertex 3.52577 -1 3.57094
    endloop
  endfacet
  facet normal 0 -1 0
    outer loop
      vertex 6.9 -1 1.8
      vertex 3 -1 5
      vertex 4.99463 -1 2.26963
    endloop
  endfacet
  facet normal 0 -1 0
    outer loop
      vertex 3 -1 5
      vertex 6.9 -1 1.8
      vertex 10.8162 -1 5
    endloop
  endfacet
  facet normal 0 -1 0
    outer loop
      vertex 10.8162 -1 5
      vertex 8.80536 -1 2.26963
      vertex 10.2742 -1 3.57094
    endloop
  endfacet
  facet normal 0 -1 0
    outer loop
      vertex 10.8162 -1 5
      vertex 6.9 -1 1.8
      vertex 8.80536 -1 2.26963
    endloop
  endfacet
  facet normal -0 -1 0
    outer loop
      vertex 10.9701 -1 5.4058
      vertex 10.9 -1 5.98318
      vertex 10.9 -1 5.22094
    endloop
  endfacet
  facet normal 0.707107 -0 0.707107
    outer loop
      vertex 31.5 7.5 10
      vertex 35 11 6.5
      vertex 31.5 11 10
    endloop
  endfacet
  facet normal 0.707107 0 0.707107
    outer loop
      vertex 35 11 6.5
      vertex 31.5 7.5 10
      vertex 35 7.5 6.5
    endloop
  endfacet
  facet normal 0.707107 -0 0.707107
    outer loop
      vertex 31.5 -1 10
      vertex 35 2.5 6.5
      vertex 31.5 2.5 10
    endloop
  endfacet
  facet normal 0.707107 0 0.707107
    outer loop
      vertex 35 2.5 6.5
      vertex 31.5 -1 10
      vertex 35 -1 6.5
    endloop
  endfacet
  facet normal 0.707107 0 -0.707107
    outer loop
      vertex 35 0 3.5
      vertex 31.5 10 0
      vertex 35 10 3.5
    endloop
  endfacet
  facet normal 0.707107 0 -0.707107
    outer loop
      vertex 31.5 10 0
      vertex 35 0 3.5
      vertex 31.5 0 0
    endloop
  endfacet
  facet normal 0 1 -0
    outer loop
      vertex 35 0 0
      vertex 31.5 0 0
      vertex 35 0 3.5
    endloop
  endfacet
  facet normal 0 -1 0
    outer loop
      vertex 31.5 10 0
      vertex 35 10 0
      vertex 35 10 3.5
    endloop
  endfacet
  facet normal 1 -0 0
    outer loop
      vertex 35 -1 6.5
      vertex 35 2.5 5
      vertex 35 2.5 6.5
    endloop
  endfacet
  facet normal 1 0 0
    outer loop
      vertex 35 2.5 5
      vertex 35 -1 6.5
      vertex 35 0 3.5
    endloop
  endfacet
  facet normal 1 0 0
    outer loop
      vertex 35 -1 0
      vertex 35 0 3.5
      vertex 35 -1 6.5
    endloop
  endfacet
  facet normal 1 0 0
    outer loop
      vertex 35 0 3.5
      vertex 35 -1 0
      vertex 35 0 0
    endloop
  endfacet
  facet normal 1 0 0
    outer loop
      vertex 35 11 6.5
      vertex 35 10 3.5
      vertex 35 11 0
    endloop
  endfacet
  facet normal 1 0 0
    outer loop
      vertex 35 7.5 5
      vertex 35 11 6.5
      vertex 35 7.5 6.5
    endloop
  endfacet
  facet normal 1 0 0
    outer loop
      vertex 35 11 6.5
      vertex 35 7.5 5
      vertex 35 10 3.5
    endloop
  endfacet
  facet normal 1 -0 0
    outer loop
      vertex 35 2.5 5
      vertex 35 10 3.5
      vertex 35 7.5 5
    endloop
  endfacet
  facet normal 1 0 0
    outer loop
      vertex 35 10 3.5
      vertex 35 2.5 5
      vertex 35 0 3.5
    endloop
  endfacet
  facet normal 1 0 0
    outer loop
      vertex 35 11 0
      vertex 35 10 3.5
      vertex 35 10 0
    endloop
  endfacet
  facet normal 0.433875 0 0.900973
    outer loop
      vertex 28.4363 11 3.75302
      vertex 30 -1 3
      vertex 30 11 3
    endloop
  endfacet
  facet normal 0.433875 0 0.900973
    outer loop
      vertex 30 -1 3
      vertex 28.4363 11 3.75302
      vertex 28.4363 -1 3.75302
    endloop
  endfacet
  facet normal 0 0 -1
    outer loop
      vertex 29.1322 -1 6.80194
      vertex 30.8678 2.5 6.80194
      vertex 30.8678 -1 6.80194
    endloop
  endfacet
  facet normal -0 0 -1
    outer loop
      vertex 30.8678 2.5 6.80194
      vertex 29.1322 -1 6.80194
      vertex 29.1322 2.5 6.80194
    endloop
  endfacet
  facet normal 0 0 -1
    outer loop
      vertex 29.1322 7.5 6.80194
      vertex 30.8678 11 6.80194
      vertex 30.8678 7.5 6.80194
    endloop
  endfacet
  facet normal -0 0 -1
    outer loop
      vertex 30.8678 11 6.80194
      vertex 29.1322 7.5 6.80194
      vertex 29.1322 11 6.80194
    endloop
  endfacet
  facet normal 0.974917 0 0.222568
    outer loop
      vertex 28.0501 2.5 5.44504
      vertex 28.0501 -1 5.44504
      vertex 28.1517 2.5 5
    endloop
  endfacet
  facet normal 0.974917 0 0.222568
    outer loop
      vertex 28.1517 7.5 5
      vertex 28.0501 11 5.44504
      vertex 28.0501 7.5 5.44504
    endloop
  endfacet
  facet normal 0.974927 5.72635e-06 0.222525
    outer loop
      vertex 28.0501 11 5.44504
      vertex 28.1517 7.5 5
      vertex 28.4363 11 3.75302
    endloop
  endfacet
  facet normal 0.97493 -0 0.22251
    outer loop
      vertex 28.1517 2.5 5
      vertex 28.4363 11 3.75302
      vertex 28.1517 7.5 5
    endloop
  endfacet
  facet normal 0.974927 -5.72635e-06 0.222525
    outer loop
      vertex 28.4363 -1 3.75302
      vertex 28.1517 2.5 5
      vertex 28.0501 -1 5.44504
    endloop
  endfacet
  facet normal 0.97493 0 0.22251
    outer loop
      vertex 28.1517 2.5 5
      vertex 28.4363 -1 3.75302
      vertex 28.4363 11 3.75302
    endloop
  endfacet
  facet normal 0.781829 0 -0.623493
    outer loop
      vertex 29.1322 -1 6.80194
      vertex 28.0501 2.5 5.44504
      vertex 29.1322 2.5 6.80194
    endloop
  endfacet
  facet normal 0.781829 0 -0.623493
    outer loop
      vertex 28.0501 2.5 5.44504
      vertex 29.1322 -1 6.80194
      vertex 28.0501 -1 5.44504
    endloop
  endfacet
  facet normal 0.781829 0 -0.623493
    outer loop
      vertex 29.1322 7.5 6.80194
      vertex 28.0501 11 5.44504
      vertex 29.1322 11 6.80194
    endloop
  endfacet
  facet normal 0.781829 0 -0.623493
    outer loop
      vertex 28.0501 11 5.44504
      vertex 29.1322 7.5 6.80194
      vertex 28.0501 7.5 5.44504
    endloop
  endfacet
  facet normal -0.974927 5.72635e-06 0.222525
    outer loop
      vertex 31.5637 11 3.75302
      vertex 31.8483 7.5 5
      vertex 31.9499 11 5.44504
    endloop
  endfacet
  facet normal -0.97493 0 0.22251
    outer loop
      vertex 31.5637 11 3.75302
      vertex 31.8483 2.5 5
      vertex 31.8483 7.5 5
    endloop
  endfacet
  facet normal -0.97493 0 0.22251
    outer loop
      vertex 31.5637 -1 3.75302
      vertex 31.8483 2.5 5
      vertex 31.5637 11 3.75302
    endloop
  endfacet
  facet normal -0.974927 -5.72635e-06 0.222525
    outer loop
      vertex 31.9499 -1 5.44504
      vertex 31.8483 2.5 5
      vertex 31.5637 -1 3.75302
    endloop
  endfacet
  facet normal -0.974917 0 0.222568
    outer loop
      vertex 31.8483 2.5 5
      vertex 31.9499 -1 5.44504
      vertex 31.9499 2.5 5.44504
    endloop
  endfacet
  facet normal -0.974917 0 0.222568
    outer loop
      vertex 31.9499 11 5.44504
      vertex 31.8483 7.5 5
      vertex 31.9499 7.5 5.44504
    endloop
  endfacet
  facet normal -0.781829 0 -0.623493
    outer loop
      vertex 31.9499 -1 5.44504
      vertex 30.8678 2.5 6.80194
      vertex 31.9499 2.5 5.44504
    endloop
  endfacet
  facet normal -0.781829 -0 -0.623493
    outer loop
      vertex 30.8678 2.5 6.80194
      vertex 31.9499 -1 5.44504
      vertex 30.8678 -1 6.80194
    endloop
  endfacet
  facet normal -0.781829 0 -0.623493
    outer loop
      vertex 31.9499 7.5 5.44504
      vertex 30.8678 11 6.80194
      vertex 31.9499 11 5.44504
    endloop
  endfacet
  facet normal -0.781829 -0 -0.623493
    outer loop
      vertex 30.8678 11 6.80194
      vertex 31.9499 7.5 5.44504
      vertex 30.8678 7.5 6.80194
    endloop
  endfacet
  facet normal -0.433875 0 0.900973
    outer loop
      vertex 30 11 3
      vertex 31.5637 -1 3.75302
      vertex 31.5637 11 3.75302
    endloop
  endfacet
  facet normal -0.433875 0 0.900973
    outer loop
      vertex 31.5637 -1 3.75302
      vertex 30 11 3
      vertex 30 -1 3
    endloop
  endfacet
  facet normal 0 -1 0
    outer loop
      vertex 0 7.5 10
      vertex 29.1322 7.5 6.80194
      vertex 31.5 7.5 10
    endloop
  endfacet
  facet normal 0 -1 0
    outer loop
      vertex 0 7.5 10
      vertex 28.0501 7.5 5.44504
      vertex 29.1322 7.5 6.80194
    endloop
  endfacet
  facet normal 0 -1 0
    outer loop
      vertex 0 7.5 5
      vertex 28.0501 7.5 5.44504
      vertex 0 7.5 10
    endloop
  endfacet
  facet normal 0 -1 -0
    outer loop
      vertex 28.0501 7.5 5.44504
      vertex 0 7.5 5
      vertex 28.1517 7.5 5
    endloop
  endfacet
  facet normal 0 -1 0
    outer loop
      vertex 30.8678 7.5 6.80194
      vertex 31.5 7.5 10
      vertex 29.1322 7.5 6.80194
    endloop
  endfacet
  facet normal 0 -1 0
    outer loop
      vertex 30.8678 7.5 6.80194
      vertex 35 7.5 6.5
      vertex 31.5 7.5 10
    endloop
  endfacet
  facet normal 0 -1 0
    outer loop
      vertex 31.9499 7.5 5.44504
      vertex 35 7.5 6.5
      vertex 30.8678 7.5 6.80194
    endloop
  endfacet
  facet normal 0 -1 0
    outer loop
      vertex 35 7.5 5
      vertex 31.9499 7.5 5.44504
      vertex 31.8483 7.5 5
    endloop
  endfacet
  facet normal 0 -1 0
    outer loop
      vertex 31.9499 7.5 5.44504
      vertex 35 7.5 5
      vertex 35 7.5 6.5
    endloop
  endfacet
  facet normal 0 1 0
    outer loop
      vertex 29.1322 2.5 6.80194
      vertex 31.5 2.5 10
      vertex 30.8678 2.5 6.80194
    endloop
  endfacet
  facet normal 0 1 0
    outer loop
      vertex 35 2.5 6.5
      vertex 30.8678 2.5 6.80194
      vertex 31.5 2.5 10
    endloop
  endfacet
  facet normal 0 1 0
    outer loop
      vertex 35 2.5 6.5
      vertex 31.9499 2.5 5.44504
      vertex 30.8678 2.5 6.80194
    endloop
  endfacet
  facet normal 0 1 -0
    outer loop
      vertex 35 2.5 5
      vertex 31.9499 2.5 5.44504
      vertex 35 2.5 6.5
    endloop
  endfacet
  facet normal 0 1 0
    outer loop
      vertex 31.9499 2.5 5.44504
      vertex 35 2.5 5
      vertex 31.8483 2.5 5
    endloop
  endfacet
  facet normal 0 1 0
    outer loop
      vertex 31.5 2.5 10
      vertex 29.1322 2.5 6.80194
      vertex 10.9 2.5 10
    endloop
  endfacet
  facet normal 0 1 -0
    outer loop
      vertex 28.0501 2.5 5.44504
      vertex 10.9 2.5 10
      vertex 29.1322 2.5 6.80194
    endloop
  endfacet
  facet normal 0 1 0
    outer loop
      vertex 10.9 2.5 5
      vertex 28.0501 2.5 5.44504
      vertex 28.1517 2.5 5
    endloop
  endfacet
  facet normal 0 1 0
    outer loop
      vertex 28.0501 2.5 5.44504
      vertex 10.9 2.5 5
      vertex 10.9 2.5 10
    endloop
  endfacet
  facet normal 0 1 -0
    outer loop
      vertex 3 2.5 5
      vertex 0 2.5 10
      vertex 3 2.5 10
    endloop
  endfacet
  facet normal 0 1 0
    outer loop
      vertex 0 2.5 10
      vertex 3 2.5 5
      vertex 0 2.5 5
    endloop
  endfacet
endsolid OpenSCAD_Model
