solid OpenSCAD_Model
  facet normal 0.970941 0.239318 0
    outer loop
      vertex 4 0 2
      vertex 3.54182 1.85889 0
      vertex 3.54182 1.85889 2
    endloop
  endfacet
  facet normal 0.970941 0.239318 0
    outer loop
      vertex 3.54182 1.85889 0
      vertex 4 0 2
      vertex 4 0 0
    endloop
  endfacet
  facet normal -1 0 0
    outer loop
      vertex -3.88377 -0.957262 0
      vertex -3.88377 0.957262 2
      vertex -3.88377 0.957262 0
    endloop
  endfacet
  facet normal -1 -0 0
    outer loop
      vertex -3.88377 0.957262 2
      vertex -3.88377 -0.957262 0
      vertex -3.88377 -0.957262 2
    endloop
  endfacet
  facet normal -0.120536 0.992709 0
    outer loop
      vertex 0.482146 3.97083 0
      vertex -1.41842 3.74006 2
      vertex 0.482146 3.97083 2
    endloop
  endfacet
  facet normal -0.120536 0.992709 0
    outer loop
      vertex -1.41842 3.74006 2
      vertex 0.482146 3.97083 0
      vertex -1.41842 3.74006 0
    endloop
  endfacet
  facet normal 0.748511 0.663122 0
    outer loop
      vertex 3.54182 1.85889 2
      vertex 2.27226 3.29193 0
      vertex 2.27226 3.29193 2
    endloop
  endfacet
  facet normal 0.748511 0.663122 0
    outer loop
      vertex 2.27226 3.29193 0
      vertex 3.54182 1.85889 2
      vertex 3.54182 1.85889 0
    endloop
  endfacet
  facet normal -0.568064 0.822984 0
    outer loop
      vertex -1.41842 3.74006 0
      vertex -2.99404 2.65249 2
      vertex -1.41842 3.74006 2
    endloop
  endfacet
  facet normal -0.568064 0.822984 0
    outer loop
      vertex -2.99404 2.65249 2
      vertex -1.41842 3.74006 0
      vertex -2.99404 2.65249 0
    endloop
  endfacet
  facet normal 0.354605 -0.935016 0
    outer loop
      vertex 0.482146 -3.97083 0
      vertex 2.27226 -3.29193 2
      vertex 0.482146 -3.97083 2
    endloop
  endfacet
  facet normal 0.354605 -0.935016 0
    outer loop
      vertex 2.27226 -3.29193 2
      vertex 0.482146 -3.97083 0
      vertex 2.27226 -3.29193 0
    endloop
  endfacet
  facet normal 0.354605 0.935016 -0
    outer loop
      vertex 2.27226 3.29193 0
      vertex 0.482146 3.97083 2
      vertex 2.27226 3.29193 2
    endloop
  endfacet
  facet normal 0.354605 0.935016 0
    outer loop
      vertex 0.482146 3.97083 2
      vertex 2.27226 3.29193 0
      vertex 0.482146 3.97083 0
    endloop
  endfacet
  facet normal -0.885455 0.464726 0
    outer loop
      vertex -3.88377 0.957262 0
      vertex -2.99404 2.65249 2
      vertex -2.99404 2.65249 0
    endloop
  endfacet
  facet normal -0.885455 0.464726 0
    outer loop
      vertex -2.99404 2.65249 2
      vertex -3.88377 0.957262 0
      vertex -3.88377 0.957262 2
    endloop
  endfacet
  facet normal 0 0 1
    outer loop
      vertex 1.95 0 2
      vertex 4 0 2
      vertex 3.54182 1.85889 2
    endloop
  endfacet
  facet normal 0 0 1
    outer loop
      vertex 1.21581 1.52457 2
      vertex 3.54182 1.85889 2
      vertex 2.27226 3.29193 2
    endloop
  endfacet
  facet normal 0 0 1
    outer loop
      vertex 4 0 2
      vertex 1.95 0 2
      vertex 3.54182 -1.85889 2
    endloop
  endfacet
  facet normal -0 0 1
    outer loop
      vertex 1.21581 -1.52457 2
      vertex 3.54182 -1.85889 2
      vertex 1.95 0 2
    endloop
  endfacet
  facet normal 0 0 1
    outer loop
      vertex 3.54182 1.85889 2
      vertex 1.21581 1.52457 2
      vertex 1.95 0 2
    endloop
  endfacet
  facet normal 0 0 1
    outer loop
      vertex 0.482146 3.97083 2
      vertex 1.21581 1.52457 2
      vertex 2.27226 3.29193 2
    endloop
  endfacet
  facet normal 0 0 1
    outer loop
      vertex 0.482146 3.97083 2
      vertex -0.433915 1.90111 2
      vertex 1.21581 1.52457 2
    endloop
  endfacet
  facet normal -0 0 1
    outer loop
      vertex -1.41842 3.74006 2
      vertex -0.433915 1.90111 2
      vertex 0.482146 3.97083 2
    endloop
  endfacet
  facet normal -0 0 1
    outer loop
      vertex -2.99404 2.65249 2
      vertex -0.433915 1.90111 2
      vertex -1.41842 3.74006 2
    endloop
  endfacet
  facet normal -0 0 1
    outer loop
      vertex -3.88377 0.957262 2
      vertex -1.75689 0.846073 2
      vertex -2.99404 2.65249 2
    endloop
  endfacet
  facet normal 0 0 1
    outer loop
      vertex -0.433915 1.90111 2
      vertex -2.99404 2.65249 2
      vertex -1.75689 0.846073 2
    endloop
  endfacet
  facet normal 0 0 1
    outer loop
      vertex 3.54182 -1.85889 2
      vertex 1.21581 -1.52457 2
      vertex 2.27226 -3.29193 2
    endloop
  endfacet
  facet normal 0 0 1
    outer loop
      vertex 1.21581 -1.52457 2
      vertex 0.482146 -3.97083 2
      vertex 2.27226 -3.29193 2
    endloop
  endfacet
  facet normal -0 0 1
    outer loop
      vertex -0.433915 -1.90111 2
      vertex 0.482146 -3.97083 2
      vertex 1.21581 -1.52457 2
    endloop
  endfacet
  facet normal 0 0 1
    outer loop
      vertex -0.433915 -1.90111 2
      vertex -1.41842 -3.74006 2
      vertex 0.482146 -3.97083 2
    endloop
  endfacet
  facet normal 0 0 1
    outer loop
      vertex -2.99404 -2.65249 2
      vertex -0.433915 -1.90111 2
      vertex -1.75689 -0.846073 2
    endloop
  endfacet
  facet normal 0 0 1
    outer loop
      vertex -1.75689 0.846073 2
      vertex -3.88377 0.957262 2
      vertex -1.75689 -0.846073 2
    endloop
  endfacet
  facet normal 0 0 1
    outer loop
      vertex -0.433915 -1.90111 2
      vertex -2.99404 -2.65249 2
      vertex -1.41842 -3.74006 2
    endloop
  endfacet
  facet normal 0 0 1
    outer loop
      vertex -3.88377 -0.957262 2
      vertex -1.75689 -0.846073 2
      vertex -3.88377 0.957262 2
    endloop
  endfacet
  facet normal 0 0 1
    outer loop
      vertex -1.75689 -0.846073 2
      vertex -3.88377 -0.957262 2
      vertex -2.99404 -2.65249 2
    endloop
  endfacet
  facet normal 0.970941 -0.239318 0
    outer loop
      vertex 3.54182 -1.85889 2
      vertex 4 0 0
      vertex 4 0 2
    endloop
  endfacet
  facet normal 0.970941 -0.239318 0
    outer loop
      vertex 4 0 0
      vertex 3.54182 -1.85889 2
      vertex 3.54182 -1.85889 0
    endloop
  endfacet
  facet normal 0.748511 -0.663122 0
    outer loop
      vertex 2.27226 -3.29193 2
      vertex 3.54182 -1.85889 0
      vertex 3.54182 -1.85889 2
    endloop
  endfacet
  facet normal 0.748511 -0.663122 0
    outer loop
      vertex 3.54182 -1.85889 0
      vertex 2.27226 -3.29193 2
      vertex 2.27226 -3.29193 0
    endloop
  endfacet
  facet normal 0 0 -1
    outer loop
      vertex 3.54182 -1.85889 0
      vertex 3.54182 1.85889 0
      vertex 4 0 0
    endloop
  endfacet
  facet normal 0 0 -1
    outer loop
      vertex 2.27226 -3.29193 0
      vertex 3.54182 1.85889 0
      vertex 3.54182 -1.85889 0
    endloop
  endfacet
  facet normal 0 0 -1
    outer loop
      vertex 2.27226 -3.29193 0
      vertex 2.27226 3.29193 0
      vertex 3.54182 1.85889 0
    endloop
  endfacet
  facet normal 0 0 -1
    outer loop
      vertex 0.482146 -3.97083 0
      vertex 2.27226 3.29193 0
      vertex 2.27226 -3.29193 0
    endloop
  endfacet
  facet normal 0 0 -1
    outer loop
      vertex 0.482146 -3.97083 0
      vertex 0.482146 3.97083 0
      vertex 2.27226 3.29193 0
    endloop
  endfacet
  facet normal 0 0 -1
    outer loop
      vertex -1.41842 -3.74006 0
      vertex 0.482146 3.97083 0
      vertex 0.482146 -3.97083 0
    endloop
  endfacet
  facet normal 0 0 -1
    outer loop
      vertex -1.41842 -3.74006 0
      vertex -1.41842 3.74006 0
      vertex 0.482146 3.97083 0
    endloop
  endfacet
  facet normal 0 0 -1
    outer loop
      vertex -2.99404 -2.65249 0
      vertex -1.41842 3.74006 0
      vertex -1.41842 -3.74006 0
    endloop
  endfacet
  facet normal 0 0 -1
    outer loop
      vertex -2.99404 -2.65249 0
      vertex -2.99404 2.65249 0
      vertex -1.41842 3.74006 0
    endloop
  endfacet
  facet normal 0 0 -1
    outer loop
      vertex -3.88377 -0.957262 0
      vertex -2.99404 2.65249 0
      vertex -2.99404 -2.65249 0
    endloop
  endfacet
  facet normal 0 0 -1
    outer loop
      vertex -2.99404 2.65249 0
      vertex -3.88377 -0.957262 0
      vertex -3.88377 0.957262 0
    endloop
  endfacet
  facet normal -0.120536 -0.992709 0
    outer loop
      vertex -1.41842 -3.74006 0
      vertex 0.482146 -3.97083 2
      vertex -1.41842 -3.74006 2
    endloop
  endfacet
  facet normal -0.120536 -0.992709 -0
    outer loop
      vertex 0.482146 -3.97083 2
      vertex -1.41842 -3.74006 0
      vertex 0.482146 -3.97083 0
    endloop
  endfacet
  facet normal -0.568064 -0.822984 0
    outer loop
      vertex -2.99404 -2.65249 0
      vertex -1.41842 -3.74006 2
      vertex -2.99404 -2.65249 2
    endloop
  endfacet
  facet normal -0.568064 -0.822984 -0
    outer loop
      vertex -1.41842 -3.74006 2
      vertex -2.99404 -2.65249 0
      vertex -1.41842 -3.74006 0
    endloop
  endfacet
  facet normal -0.885455 -0.464726 0
    outer loop
      vertex -2.99404 -2.65249 0
      vertex -3.88377 -0.957262 2
      vertex -3.88377 -0.957262 0
    endloop
  endfacet
  facet normal -0.885455 -0.464726 0
    outer loop
      vertex -3.88377 -0.957262 2
      vertex -2.99404 -2.65249 0
      vertex -2.99404 -2.65249 2
    endloop
  endfacet
  facet normal 0.90097 0.433882 0
    outer loop
      vertex 1.95 0 22
      vertex 1.21581 1.52457 2
      vertex 1.21581 1.52457 22
    endloop
  endfacet
  facet normal 0.90097 0.433882 0
    outer loop
      vertex 1.21581 1.52457 2
      vertex 1.95 0 22
      vertex 1.95 0 2
    endloop
  endfacet
  facet normal -1 0 0
    outer loop
      vertex -1.75689 -0.846073 2
      vertex -1.75689 0.846073 22
      vertex -1.75689 0.846073 2
    endloop
  endfacet
  facet normal -1 -0 0
    outer loop
      vertex -1.75689 0.846073 22
      vertex -1.75689 -0.846073 2
      vertex -1.75689 -0.846073 22
    endloop
  endfacet
  facet normal -0.62349 0.781832 0
    outer loop
      vertex -0.433915 1.90111 2
      vertex -1.75689 0.846073 22
      vertex -0.433915 1.90111 22
    endloop
  endfacet
  facet normal -0.62349 0.781832 0
    outer loop
      vertex -1.75689 0.846073 22
      vertex -0.433915 1.90111 2
      vertex -1.75689 0.846073 2
    endloop
  endfacet
  facet normal 0.222522 0.974928 -0
    outer loop
      vertex 1.21581 1.52457 2
      vertex -0.433915 1.90111 22
      vertex 1.21581 1.52457 22
    endloop
  endfacet
  facet normal 0.222522 0.974928 0
    outer loop
      vertex -0.433915 1.90111 22
      vertex 1.21581 1.52457 2
      vertex -0.433915 1.90111 2
    endloop
  endfacet
  facet normal 0 0 1
    outer loop
      vertex 1.21581 1.52457 22
      vertex 1.21581 -1.52457 22
      vertex 1.95 0 22
    endloop
  endfacet
  facet normal 0 0 1
    outer loop
      vertex -0.433915 1.90111 22
      vertex 1.21581 -1.52457 22
      vertex 1.21581 1.52457 22
    endloop
  endfacet
  facet normal 0 0 1
    outer loop
      vertex -0.433915 1.90111 22
      vertex -0.433915 -1.90111 22
      vertex 1.21581 -1.52457 22
    endloop
  endfacet
  facet normal -0 0 1
    outer loop
      vertex -1.75689 0.846073 22
      vertex -0.433915 -1.90111 22
      vertex -0.433915 1.90111 22
    endloop
  endfacet
  facet normal 0 0 1
    outer loop
      vertex -0.433915 -1.90111 22
      vertex -1.75689 0.846073 22
      vertex -1.75689 -0.846073 22
    endloop
  endfacet
  facet normal 0.90097 -0.433882 0
    outer loop
      vertex 1.21581 -1.52457 22
      vertex 1.95 0 2
      vertex 1.95 0 22
    endloop
  endfacet
  facet normal 0.90097 -0.433882 0
    outer loop
      vertex 1.95 0 2
      vertex 1.21581 -1.52457 22
      vertex 1.21581 -1.52457 2
    endloop
  endfacet
  facet normal 0.222522 -0.974928 0
    outer loop
      vertex -0.433915 -1.90111 2
      vertex 1.21581 -1.52457 22
      vertex -0.433915 -1.90111 22
    endloop
  endfacet
  facet normal 0.222522 -0.974928 0
    outer loop
      vertex 1.21581 -1.52457 22
      vertex -0.433915 -1.90111 2
      vertex 1.21581 -1.52457 2
    endloop
  endfacet
  facet normal -0.62349 -0.781832 0
    outer loop
      vertex -1.75689 -0.846073 2
      vertex -0.433915 -1.90111 22
      vertex -1.75689 -0.846073 22
    endloop
  endfacet
  facet normal -0.62349 -0.781832 -0
    outer loop
      vertex -0.433915 -1.90111 22
      vertex -1.75689 -0.846073 2
      vertex -0.433915 -1.90111 2
    endloop
  endfacet
endsolid OpenSCAD_Model
